<svg version="1.2" xmlns="http://www.w3.org/2000/svg" viewBox="0 0 780 400" width="780" height="400">
	<title>viz</title>
	<style>
		tspan { white-space:pre } 
		.s0 { fill: none;stroke: #000000 } 
		.t1 { font-size: 11px;fill: #000000;font-family: Helvetica, Arial, sans-serif } 
		.s2 { fill: #000000;stroke: #7E7278;stroke-dasharray: 4 } 
		.s3 { fill: #000000;stroke: #7E7278 } 
		.s4 { fill: #000000;stroke: #7E7278;stroke-width: 2 } 
		.s5 { fill: #7E7278 } 
		.s6 { fill: #000000;stroke: #ffffff } 
		.s7 { fill: #ffffff;stroke: #7E7278 } 
		.t8 { font-size: 11px;fill: #000000;font-family: Helvetica, Arial, sans-serif } 
	</style>
	<g id="viz">
		<g id="y axis">
			<path class="s0" d="m22 370h6v-360h-6"/>
			<g>
				<path class="s0" d="m28 370h-6"/>
				<text id="4,0" style="transform: matrix(1,0,0,1,19,373.2)" >
					<tspan x="-15.9" y="0" class="t1">4</tspan><tspan  y="0" class="t1">,</tspan><tspan  y="0" class="t1">0
</tspan>
				</text>
			</g>
			<g>
				<path class="s0" d="m28 346h-6"/>
				<text id="4,2" style="transform: matrix(1,0,0,1,19,349.2)" >
					<tspan x="-15.9" y="0" class="t1">4</tspan><tspan  y="0" class="t1">,</tspan><tspan  y="0" class="t1">2
</tspan>
				</text>
			</g>
			<g>
				<path class="s0" d="m28 322h-6"/>
				<text id="4,4" style="transform: matrix(1,0,0,1,19,325.2)" >
					<tspan x="-15.9" y="0" class="t1">4</tspan><tspan  y="0" class="t1">,</tspan><tspan  y="0" class="t1">4
</tspan>
				</text>
			</g>
			<g>
				<path class="s0" d="m28 298h-6"/>
				<text id="4,6" style="transform: matrix(1,0,0,1,19,301.2)" >
					<tspan x="-15.9" y="0" class="t1">4</tspan><tspan  y="0" class="t1">,</tspan><tspan  y="0" class="t1">6
</tspan>
				</text>
			</g>
			<g>
				<path class="s0" d="m28 274h-6"/>
				<text id="4,8" style="transform: matrix(1,0,0,1,19,277.2)" >
					<tspan x="-15.9" y="0" class="t1">4</tspan><tspan  y="0" class="t1">,</tspan><tspan  y="0" class="t1">8
</tspan>
				</text>
			</g>
			<g>
				<path class="s0" d="m28 250h-6"/>
				<text id="5,0" style="transform: matrix(1,0,0,1,19,253.2)" >
					<tspan x="-15.9" y="0" class="t1">5</tspan><tspan  y="0" class="t1">,</tspan><tspan  y="0" class="t1">0
</tspan>
				</text>
			</g>
			<g>
				<path class="s0" d="m28 226h-6"/>
				<text id="5,2" style="transform: matrix(1,0,0,1,19,229.2)" >
					<tspan x="-15.9" y="0" class="t1">5</tspan><tspan  y="0" class="t1">,</tspan><tspan  y="0" class="t1">2
</tspan>
				</text>
			</g>
			<g>
				<path class="s0" d="m28 202h-6"/>
				<text id="5,4" style="transform: matrix(1,0,0,1,19,205.2)" >
					<tspan x="-15.9" y="0" class="t1">5</tspan><tspan  y="0" class="t1">,</tspan><tspan  y="0" class="t1">4
</tspan>
				</text>
			</g>
			<g>
				<path class="s0" d="m28 178h-6"/>
				<text id="5,6" style="transform: matrix(1,0,0,1,19,181.2)" >
					<tspan x="-15.9" y="0" class="t1">5</tspan><tspan  y="0" class="t1">,</tspan><tspan  y="0" class="t1">6
</tspan>
				</text>
			</g>
			<g>
				<path class="s0" d="m28 154h-6"/>
				<text id="5,8" style="transform: matrix(1,0,0,1,19,157.2)" >
					<tspan x="-15.9" y="0" class="t1">5</tspan><tspan  y="0" class="t1">,</tspan><tspan  y="0" class="t1">8
</tspan>
				</text>
			</g>
			<g>
				<path class="s0" d="m28 130h-6"/>
				<text id="6,0" style="transform: matrix(1,0,0,1,19,133.2)" >
					<tspan x="-15.9" y="0" class="t1">6</tspan><tspan  y="0" class="t1">,</tspan><tspan  y="0" class="t1">0
</tspan>
				</text>
			</g>
			<g>
				<path class="s0" d="m28 106h-6"/>
				<text id="6,2" style="transform: matrix(1,0,0,1,19,109.2)" >
					<tspan x="-15.9" y="0" class="t1">6</tspan><tspan  y="0" class="t1">,</tspan><tspan  y="0" class="t1">2
</tspan>
				</text>
			</g>
			<g>
				<path class="s0" d="m28 82h-6"/>
				<text id="6,4" style="transform: matrix(1,0,0,1,19,85.2)" >
					<tspan x="-15.9" y="0" class="t1">6</tspan><tspan  y="0" class="t1">,</tspan><tspan  y="0" class="t1">4
</tspan>
				</text>
			</g>
			<g>
				<path class="s0" d="m28 58h-6"/>
				<text id="6,6" style="transform: matrix(1,0,0,1,19,61.2)" >
					<tspan x="-15.9" y="0" class="t1">6</tspan><tspan  y="0" class="t1">,</tspan><tspan  y="0" class="t1">6
</tspan>
				</text>
			</g>
			<g>
				<path class="s0" d="m28 34h-6"/>
				<text id="6,8" style="transform: matrix(1,0,0,1,19,37.2)" >
					<tspan x="-15.9" y="0" class="t1">6</tspan><tspan  y="0" class="t1">,</tspan><tspan  y="0" class="t1">8
</tspan>
				</text>
			</g>
			<g>
				<path class="s0" d="m28 10h-6"/>
				<text id="7,0" style="transform: matrix(1,0,0,1,19,13.2)" >
					<tspan x="-15.9" y="0" class="t1">7</tspan><tspan  y="0" class="t1">,</tspan><tspan  y="0" class="t1">0
</tspan>
				</text>
			</g>
		</g>
		<g id="x axis">
			<path class="s0" d="m28 376v-6h740v6"/>
			<g>
				<path class="s0" d="m213 370v6"/>
				<text id="Industrial y Servicios" style="transform: matrix(1,0,0,1,213,386.1)" >
					<tspan x="-52" y="0" class="t1">I</tspan><tspan  y="0" class="t1">n</tspan><tspan  y="0" class="t1">d</tspan><tspan  y="0" class="t1">u</tspan><tspan  y="0" class="t1">s</tspan><tspan  y="0" class="t1">t</tspan><tspan  y="0" class="t1">r</tspan><tspan  y="0" class="t1">i</tspan><tspan  y="0" class="t1">a</tspan><tspan  y="0" class="t1">l</tspan><tspan  y="0" class="t1"> </tspan><tspan  y="0" class="t1">y</tspan><tspan  y="0" class="t1"> </tspan><tspan  y="0" class="t1">S</tspan><tspan  y="0" class="t1">e</tspan><tspan  y="0" class="t1">r</tspan><tspan  y="0" class="t1">v</tspan><tspan  y="0" class="t1">i</tspan><tspan  y="0" class="t1">c</tspan><tspan  y="0" class="t1">i</tspan><tspan  y="0" class="t1">o</tspan><tspan  y="0" class="t1">s
</tspan>
				</text>
			</g>
			<g>
				<path class="s0" d="m583 370v6"/>
				<text id="Visualidad y Medios" style="transform: matrix(1,0,0,1,583,386.1)" >
					<tspan x="-49.5" y="0" class="t1">V</tspan><tspan  y="0" class="t1">i</tspan><tspan  y="0" class="t1">s</tspan><tspan  y="0" class="t1">u</tspan><tspan  y="0" class="t1">a</tspan><tspan  y="0" class="t1">l</tspan><tspan  y="0" class="t1">i</tspan><tspan  y="0" class="t1">d</tspan><tspan  y="0" class="t1">a</tspan><tspan  y="0" class="t1">d</tspan><tspan  y="0" class="t1"> </tspan><tspan  y="0" class="t1">y</tspan><tspan  y="0" class="t1"> </tspan><tspan  y="0" class="t1">M</tspan><tspan  y="0" class="t1">e</tspan><tspan  y="0" class="t1">d</tspan><tspan  y="0" class="t1">i</tspan><tspan  y="0" class="t1">o</tspan><tspan  y="0" class="t1">s
</tspan>
				</text>
			</g>
		</g>
		<g id="boxplots">
			<g>
				<path class="s2" d="m213 10v360"/>
				<path class="s3" d="m188 10h50"/>
				<path class="s4" d="m188 370h50"/>
				<path class="s5" d="m188 106h50v144h-50z"/>
				<path class="s6" d="m188 154h50"/>
			</g>
			<g>
				<path class="s2" d="m583 10v285"/>
				<path class="s3" d="m558 10h50"/>
				<path class="s3" d="m558 295h50"/>
				<path class="s5" d="m558 100h50v78h-50z"/>
				<path class="s6" d="m558 130h50"/>
				<path class="s7" d="m583 311c-0.6 0-1-0.4-1-1 0-0.6 0.4-1 1-1 0.6 0 1 0.4 1 1 0 0.6-0.4 1-1 1z"/>
			</g>
		</g>
		<g id="boxplots">
			<g>
				<text id="7,0" style="transform: matrix(1,0,0,1,242,15)" >
					<tspan x="0" y="0" class="t8">7</tspan><tspan  y="0" class="t8">,</tspan><tspan  y="0" class="t8">0
</tspan>
				</text>
				<text id="4,0" style="transform: matrix(1,0,0,1,242,375)" >
					<tspan x="0" y="0" class="t8">4</tspan><tspan  y="0" class="t8">,</tspan><tspan  y="0" class="t8">0
</tspan>
				</text>
				<text id="5,8" style="transform: matrix(1,0,0,1,242,159)" >
					<tspan x="0" y="0" class="t8">5</tspan><tspan  y="0" class="t8">,</tspan><tspan  y="0" class="t8">8
</tspan>
				</text>
				<text id="5,0" style="transform: matrix(1,0,0,1,184,255)" >
					<tspan x="-15.9" y="0" class="t8">5</tspan><tspan  y="0" class="t8">,</tspan><tspan  y="0" class="t8">0
</tspan>
				</text>
				<text id="6,2" style="transform: matrix(1,0,0,1,185,111)" >
					<tspan x="-15.9" y="0" class="t8">6</tspan><tspan  y="0" class="t8">,</tspan><tspan  y="0" class="t8">2
</tspan>
				</text>
			</g>
			<g>
				<text id="7,0" style="transform: matrix(1,0,0,1,612,15)" >
					<tspan x="0" y="0" class="t8">7</tspan><tspan  y="0" class="t8">,</tspan><tspan  y="0" class="t8">0
</tspan>
				</text>
				<text id="4,625" style="transform: matrix(1,0,0,1,612,300)" >
					<tspan x="0" y="0" class="t8">4</tspan><tspan  y="0" class="t8">,</tspan><tspan  y="0" class="t8">62</tspan><tspan  y="0" class="t8">5
</tspan>
				</text>
				<text id="6,0" style="transform: matrix(1,0,0,1,612,135)" >
					<tspan x="0" y="0" class="t8">6</tspan><tspan  y="0" class="t8">,</tspan><tspan  y="0" class="t8">0
</tspan>
				</text>
				<text id="5,6" style="transform: matrix(1,0,0,1,554,183)" >
					<tspan x="-15.9" y="0" class="t8">5</tspan><tspan  y="0" class="t8">,</tspan><tspan  y="0" class="t8">6
</tspan>
				</text>
				<text id="6,25" style="transform: matrix(1,0,0,1,554,105)" >
					<tspan x="-22.3" y="0" class="t8">6</tspan><tspan  y="0" class="t8">,</tspan><tspan  y="0" class="t8">25
</tspan>
				</text>
			</g>
		</g>
	</g>
</svg>